<svg xmlns="http://www.w3.org/2000/svg" version="1.1" xmlns:xlink="http://www.w3.org/1999/xlink" xmlns:svgjs="http://svgjs.com/svgjs" width="1440" height="560" preserveAspectRatio="none" viewBox="0 0 1440 560"><g mask="url(&quot;#SvgjsMask1042&quot;)" fill="none"><path d="M411.833,286.308C439.459,287.085,458.377,261.552,471.734,237.357C484.526,214.187,493.452,186.198,479.529,163.69C466.082,141.951,437.395,140.482,411.833,140.523C386.372,140.564,357.294,141.886,344.514,163.907C331.704,185.978,345.199,211.785,357.497,234.145C370.465,257.724,384.934,285.552,411.833,286.308" fill="rgba(94, 10, 131, 0.39)" class="triangle-float2"></path><path d="M953.32,392.359C984.841,392.852,1018.164,383.989,1034.062,356.766C1050.066,329.363,1040.367,296.499,1025.754,268.33C1009.498,236.996,988.618,201.545,953.32,201.127C917.633,200.705,893.798,234.65,877.855,266.58C863.853,294.623,860.713,327.429,876.839,354.306C892.541,380.476,922.805,391.881,953.32,392.359" fill="rgba(94, 10, 131, 0.39)" class="triangle-float1"></path><path d="M418.318,116.688C448.646,118.608,479.982,105.009,494.126,78.112C507.565,52.554,495.895,22.872,480.494,-1.554C466.348,-23.989,444.834,-42.725,418.318,-42.118C392.628,-41.53,373.187,-21.376,360.887,1.186C349.197,22.63,346.617,47.593,357.491,69.462C369.74,94.097,390.861,114.95,418.318,116.688" fill="rgba(94, 10, 131, 0.39)" class="triangle-float1"></path><path d="M1422.211,346.816C1453.329,345.925,1471.69,314.751,1485.374,286.789C1497.076,262.877,1501.18,235.469,1488.033,212.32C1474.733,188.901,1449.142,175.302,1422.211,175.572C1395.743,175.838,1372.364,190.985,1358.639,213.618C1344.333,237.208,1340.574,265.696,1352.458,290.594C1366.245,319.481,1390.216,347.732,1422.211,346.816" fill="rgba(94, 10, 131, 0.39)" class="triangle-float2"></path><path d="M7.317,401.066C36.405,400.471,56.105,374.245,69.402,348.368C81.362,325.094,84.699,298.057,72.009,275.173C58.942,251.611,34.239,237.482,7.317,236.412C-21.726,235.257,-52.329,244.524,-66.942,269.649C-81.618,294.882,-73.69,325.587,-59.329,351.001C-44.678,376.928,-22.457,401.675,7.317,401.066" fill="rgba(94, 10, 131, 0.39)" class="triangle-float1"></path><path d="M210.435,458.211C267.415,460.595,332.33,464.014,364.661,417.034C400.102,365.536,392.088,295.264,359.136,242.139C327.879,191.746,269.585,164.176,210.435,168.389C157.528,172.157,120.443,214.791,94.396,260.996C68.949,306.137,50.772,360.338,77.051,405C103.069,449.219,159.174,456.066,210.435,458.211" fill="rgba(94, 10, 131, 0.39)" class="triangle-float3"></path><path d="M612.372,602.429C645.796,600.205,677.035,586.008,694.69,557.54C713.391,527.385,717.997,489.962,701.652,458.468C683.991,424.437,650.713,398.927,612.372,398.92C574.021,398.913,542.928,425.647,523.033,458.434C502.199,492.769,487.438,535.792,508.612,569.919C529.092,602.929,573.611,605.008,612.372,602.429" fill="rgba(94, 10, 131, 0.39)" class="triangle-float1"></path><path d="M1472.547,269.763C1527.651,267.52,1567.636,222.032,1592.779,172.947C1615.455,128.678,1618.129,76.912,1593.451,33.727C1568.581,-9.793,1522.564,-34.157,1472.547,-37.453C1415.119,-41.237,1351.056,-33.025,1320.491,15.741C1288.562,66.684,1303.2,131.889,1334.079,183.475C1364.017,233.488,1414.306,272.133,1472.547,269.763" fill="rgba(94, 10, 131, 0.39)" class="triangle-float1"></path><path d="M847.775,289.001C898.398,285.312,935.159,245.463,959.063,200.687C981.337,158.964,986.374,110.906,965.511,68.46C941.75,20.116,901.566,-22.854,847.775,-25.734C789.637,-28.847,735.386,4.32,705.969,54.563C676.24,105.339,673.887,168.903,704.34,219.248C733.832,268.005,790.943,293.142,847.775,289.001" fill="rgba(94, 10, 131, 0.39)" class="triangle-float3"></path><path d="M1122.119,201.075C1163.022,202.175,1202.166,180.282,1221.56,144.252C1240.085,109.836,1231.439,68.851,1211.336,35.332C1191.893,2.913,1159.896,-22.929,1122.119,-21.554C1086.147,-20.244,1061.165,10.085,1043.488,41.442C1026.219,72.076,1015.99,107.597,1031.529,139.143C1048.853,174.313,1082.928,200.021,1122.119,201.075" fill="rgba(94, 10, 131, 0.39)" class="triangle-float3"></path><path d="M676.168,639.349C709.97,641.024,749.005,638.559,766.002,609.294C783.042,579.955,766.301,544.508,747.751,516.1C731.299,490.906,706.242,472.714,676.168,471.724C644.252,470.674,612.046,483.535,595.929,511.103C579.681,538.895,583.46,573.804,600.535,601.095C616.596,626.766,645.924,637.85,676.168,639.349" fill="rgba(94, 10, 131, 0.39)" class="triangle-float1"></path><path d="M467.472,111.85C491.677,113.2,516.781,102.98,528.218,81.605C539.185,61.108,529.181,37.742,518.043,17.337C506.223,-4.317,492.142,-29.73,467.472,-29.683C442.841,-29.637,427.82,-4.712,417.231,17.527C408.338,36.204,407.701,57.17,417.426,75.428C427.822,94.946,445.392,110.619,467.472,111.85" fill="rgba(94, 10, 131, 0.39)" class="triangle-float1"></path><path d="M863.615,247.093C902.306,246.883,935.223,219.558,952.196,184.787C967.296,153.854,958.268,118.74,940.724,89.125C923.596,60.213,897.126,37.77,863.615,35.26C825.132,32.377,783.361,42.755,763.512,75.85C743.234,109.659,753.452,151.725,773.348,185.76C793.024,219.42,824.627,247.305,863.615,247.093" fill="rgba(94, 10, 131, 0.39)" class="triangle-float1"></path><path d="M173.263,145.62C208.409,145.897,237.956,121.605,254.994,90.864C271.476,61.126,274.809,24.259,256.347,-4.292C239.127,-30.921,204.919,-37.411,173.263,-35.528C145.225,-33.86,120.764,-19.037,105.697,4.668C89.26,30.527,80.486,61.964,93.731,89.595C108.755,120.936,138.508,145.346,173.263,145.62" fill="rgba(94, 10, 131, 0.39)" class="triangle-float1"></path><path d="M1030.439,461.313C1053.628,461.785,1075.43,450.06,1087.423,430.207C1099.841,409.651,1102.398,383.483,1089.815,363.027C1077.722,343.369,1053.519,337.718,1030.439,337.573C1007.033,337.426,981.617,342.094,969.761,362.275C957.795,382.645,964.996,407.821,977.338,427.966C989.041,447.068,1008.042,460.857,1030.439,461.313" fill="rgba(94, 10, 131, 0.39)" class="triangle-float3"></path><path d="M932.873,376.376C956.501,377.619,979.585,365.03,990.737,344.162C1001.361,324.281,994.214,301.355,983.589,281.474C972.106,259.988,957.2,237.204,932.873,235.891C906.886,234.488,882.754,251.875,871.696,275.434C861.909,296.284,872.734,318.885,884.672,338.583C896.014,357.297,911.02,375.227,932.873,376.376" fill="rgba(94, 10, 131, 0.39)" class="triangle-float2"></path><path d="M572.524,582.879C625.746,583.386,682.66,574.016,711.532,529.303C742.504,481.338,740.195,418.145,710.308,369.497C681.699,322.93,627.161,304.355,572.524,303.034C514.944,301.642,452.374,313.182,422.692,362.542C392.338,413.02,404.908,477.99,438.029,526.697C467.311,569.758,520.452,582.383,572.524,582.879" fill="rgba(94, 10, 131, 0.39)" class="triangle-float2"></path><path d="M108.23,650.73C163.659,650.99,194.304,593.366,222.226,545.483C250.466,497.055,284.604,442.516,258.611,392.846C231.46,340.964,166.674,324.017,108.23,327.653C56.057,330.899,11.131,363.31,-12.891,409.738C-35.052,452.569,-25.583,501.334,-3.927,544.422C20.866,593.752,53.021,650.471,108.23,650.73" fill="rgba(94, 10, 131, 0.39)" class="triangle-float1"></path></g><defs><mask id="SvgjsMask1042"><rect width="1440" height="560" fill="#ffffff"></rect></mask><style>
            @keyframes float1 {
                0%{transform: translate(0, 0)}
                50%{transform: translate(-10px, 0)}
                100%{transform: translate(0, 0)}
            }

            .triangle-float1 {
                animation: float1 5s infinite;
            }

            @keyframes float2 {
                0%{transform: translate(0, 0)}
                50%{transform: translate(-5px, -5px)}
                100%{transform: translate(0, 0)}
            }

            .triangle-float2 {
                animation: float2 4s infinite;
            }

            @keyframes float3 {
                0%{transform: translate(0, 0)}
                50%{transform: translate(0, -10px)}
                100%{transform: translate(0, 0)}
            }

            .triangle-float3 {
                animation: float3 6s infinite;
            }
        </style></defs></svg>