<svg id="visual" viewBox="0 0 900 600" width="900" height="600" xmlns="http://www.w3.org/2000/svg" xmlns:xlink="http://www.w3.org/1999/xlink" version="1.1"><rect x="0" y="0" width="900" height="600" fill="#253342"></rect><path d="M470 0L465.2 25C460.3 50 450.7 100 455.7 150C460.7 200 480.3 250 487.2 300C494 350 488 400 480.7 450C473.3 500 464.7 550 460.3 575L456 600L0 600L0 575C0 550 0 500 0 450C0 400 0 350 0 300C0 250 0 200 0 150C0 100 0 50 0 25L0 0Z" fill="#FFFFFF" stroke-linecap="round" stroke-linejoin="miter"></path></svg>