<svg id="visual" viewBox="0 0 900 600" width="900" height="600" xmlns="http://www.w3.org/2000/svg" xmlns:xlink="http://www.w3.org/1999/xlink" version="1.1"><g transform="translate(507.27033844358317 331.730604887915)"><path d="M177.4 -224.7C209.1 -184.8 199.6 -109.2 183.4 -54C167.3 1.1 144.6 35.7 127.6 81.7C110.6 127.7 99.4 185.1 69.7 199.2C40 213.3 -8.2 184.2 -77 175C-145.9 165.9 -235.3 176.7 -278.6 141.6C-321.9 106.4 -319 25.3 -298.6 -46.1C-278.2 -117.6 -240.4 -179.4 -187.7 -215.7C-135 -251.9 -67.5 -262.4 2.7 -265.6C72.8 -268.8 145.7 -264.6 177.4 -224.7" fill="#65C9FF"></path></g></svg>