<svg xmlns="http://www.w3.org/2000/svg" version="1.1" xmlns:xlink="http://www.w3.org/1999/xlink" xmlns:svgjs="http://svgjs.com/svgjs" width="1440" height="250" preserveAspectRatio="none" viewBox="0 0 1440 250"><g mask="url(&quot;#SvgjsMask1003&quot;)" fill="none"><path d="M26 250L276 0L492 0L242 250z" fill="url(#SvgjsLinearGradient1004)"></path><path d="M239.60000000000002 250L489.6 0L578.1 0L328.1 250z" fill="url(#SvgjsLinearGradient1004)"></path><path d="M502.20000000000005 250L752.2 0L980.2 0L730.2 250z" fill="url(#SvgjsLinearGradient1004)"></path><path d="M718.8000000000001 250L968.8000000000001 0L1192.3000000000002 0L942.3000000000001 250z" fill="url(#SvgjsLinearGradient1004)"></path><path d="M1422 250L1172 0L999.5 0L1249.5 250z" fill="url(#SvgjsLinearGradient1005)"></path><path d="M1182.4 250L932.4000000000001 0L630.9000000000001 0L880.9000000000001 250z" fill="url(#SvgjsLinearGradient1005)"></path><path d="M941.8 250L691.8 0L445.79999999999995 0L695.8 250z" fill="url(#SvgjsLinearGradient1005)"></path><path d="M713.1999999999999 250L463.19999999999993 0L148.19999999999993 0L398.19999999999993 250z" fill="url(#SvgjsLinearGradient1005)"></path><path d="M1264.4309134807015 250L1440 74.43091348070152L1440 250z" fill="url(#SvgjsLinearGradient1004)"></path><path d="M0 250L175.56908651929848 250L 0 74.43091348070152z" fill="url(#SvgjsLinearGradient1005)"></path></g><defs><mask id="SvgjsMask1003"><rect width="1440" height="250" fill="#ffffff"></rect></mask><linearGradient x1="0%" y1="100%" x2="100%" y2="0%" id="SvgjsLinearGradient1004"><stop stop-color="rgba(15, 70, 185, 0.2)" offset="0"></stop><stop stop-opacity="0" stop-color="rgba(15, 70, 185, 0.2)" offset="0.66"></stop></linearGradient><linearGradient x1="100%" y1="100%" x2="0%" y2="0%" id="SvgjsLinearGradient1005"><stop stop-color="rgba(15, 70, 185, 0.2)" offset="0"></stop><stop stop-opacity="0" stop-color="rgba(15, 70, 185, 0.2)" offset="0.66"></stop></linearGradient></defs></svg>