<svg width="1440" height="560" viewBox="0 0 1440 560" fill="none" xmlns="http://www.w3.org/2000/svg">
<g clip-path="url(#clip0_1_2)">
<mask id="mask0_1_2" style="mask-type:luminance" maskUnits="userSpaceOnUse" x="0" y="0" width="1440" height="560">
<path d="M0 560L1440 560V0L0 0V560Z" fill="white"/>
</mask>
<g mask="url(#mask0_1_2)">
<path d="M-48 0L1440 0V258.44C1406.83 273.273 1382.83 264.103 1368 230.93C1321.46 264.39 1281.46 257.847 1248 211.3C1238.41 249.707 1214.41 264.117 1176 254.53C1164.45 290.977 1140.45 303.423 1104 291.87C1047.92 315.79 1007.92 299.71 984 243.63C948.513 256.143 924.513 244.66 912 209.18C898.327 275.507 858.327 301.833 792 288.16C773.127 317.287 749.127 322.413 720 303.54C684.34 315.88 660.34 304.22 648 268.56C640.427 308.987 616.427 325.417 576 317.85C527.767 349.617 487.767 341.383 456 293.15C387.993 305.137 347.993 277.127 336 209.12C335.7 256.82 311.7 280.52 264 280.22C230.94 327.16 190.94 334.103 144 301.05C108.94 313.997 84.94 302.94 72 267.88C48.9267 324.807 8.92667 341.733 -48 318.66V0Z" fill="#182F5D"/>
<path d="M-48 1.52588e-05L1440 1.52588e-05V229.25C1393.51 262.763 1353.51 256.277 1320 209.79C1289.63 227.43 1265.63 221.067 1248 190.7C1236.95 227.647 1212.95 240.593 1176 229.54C1131.05 264.593 1091.05 259.647 1056 214.7C996.02 234.72 956.02 214.737 936 154.75C900.973 199.723 860.973 204.697 816 169.67C780.007 181.683 756.007 169.693 744 133.7C723.593 161.293 699.593 164.887 672 144.48C658.013 178.493 634.013 188.51 600 174.53C593.6 216.13 569.6 233.73 528 227.33C499.107 246.443 475.107 241.553 456 212.66C409.593 214.253 385.593 191.847 384 145.44C358.673 200.107 318.673 214.777 264 189.45C233.76 207.217 209.76 200.98 192 170.74C165.24 223.98 125.24 237.22 72 210.46C36.4867 254.947 -3.51333 259.433 -48 223.92V1.52588e-05Z" fill="#25467D"/>
<path d="M-48 1.52588e-05L1440 1.52588e-05V67.78C1415.69 91.4667 1391.69 91.1567 1368 66.85C1348.61 127.457 1308.61 148.063 1248 128.67C1213.94 174.61 1173.94 180.55 1128 146.49C1065.13 163.617 1025.13 140.74 1008 77.86C999.913 117.773 975.913 133.683 936 125.59C887.273 156.863 847.273 148.137 816 99.41C788.947 152.357 748.947 165.303 696 138.25C678.607 168.857 654.607 175.463 624 158.07C587.06 169.13 563.06 156.19 552 119.25C507.493 122.743 483.493 102.233 480 57.72C464.733 90.4533 440.733 99.1867 408 83.92C399.153 123.073 375.153 138.227 336 129.38C317.96 159.34 293.96 165.303 264 147.27C204.393 167.663 164.393 148.057 144 88.45C125.393 117.837 101.393 123.227 72 104.62C40.8933 153.513 0.893333 162.403 -48 131.29V1.52588e-05Z" fill="#356CB1"/>
<path d="M-24 -7.62939e-06L1440 -7.62939e-06V-2.01002C1421.65 59.6367 1381.65 81.28 1320 62.92C1286.74 77.66 1262.74 68.4033 1248 35.15C1187.36 54.51 1147.36 33.87 1128 -26.77C1115.51 8.74331 1091.51 20.26 1056 7.78002C1040.47 40.2534 1016.47 48.7233 984 33.19C925.307 54.4967 885.307 35.8033 864 -22.89C846.153 7.26331 822.153 13.4167 792 -4.43C772.393 23.9633 748.393 28.3567 720 8.74999C705.513 42.2633 681.513 51.7766 648 37.29C587.307 56.5966 547.307 35.9033 528 -24.79C503.113 30.3233 463.113 45.44 408 20.56C393.167 53.7267 369.167 62.8933 336 48.06C277.387 69.44 237.387 50.8233 216 -7.78999C180.6 36.8167 140.6 41.42 96 6.02001C79.32 69.34 39.32 92.6567 -24 75.97V-7.62939e-06Z" fill="white"/>
</g>
</g>
<defs>
<clipPath id="clip0_1_2">
<rect width="1440" height="560" fill="white" transform="matrix(-1 0 0 -1 1440 560)"/>
</clipPath>
</defs>
</svg>
