<svg width="900" height="162" viewBox="0 0 900 162" fill="none" xmlns="http://www.w3.org/2000/svg">
<path d="M0 42L21.5 41.3C43 40.7 86 39.3 128.8 31.7C171.7 24 214.3 10 257.2 7.5C300 5 343 14 385.8 25.2C428.7 36.3 471.3 49.7 514.2 60C557 70.3 600 77.7 642.8 78.3C685.7 79 728.3 73 771.2 58.8C814 44.7 857 22.3 878.5 11.2L900 0V163H878.5C857 163 814 163 771.2 163C728.3 163 685.7 163 642.8 163C600 163 557 163 514.2 163C471.3 163 428.7 163 385.8 163C343 163 300 163 257.2 163C214.3 163 171.7 163 128.8 163C86 163 43 163 21.5 163H0V42Z" fill="#0066FF"/>
</svg>
