<svg xmlns="http://www.w3.org/2000/svg" version="1.1" xmlns:xlink="http://www.w3.org/1999/xlink" xmlns:svgjs="http://svgjs.com/svgjs" width="1440" height="560" preserveAspectRatio="none" viewBox="0 0 1440 560"><g mask="url(&quot;#SvgjsMask1010&quot;)" fill="none"><path d="M-64.4 397.7L-64.4 397.7" stroke="#132e65" stroke-width="1.5"></path><path d="M-64.4 397.7L72.77 338.93" stroke="#132e65" stroke-width="1.5"></path><path d="M-64.4 397.7L-43.58 555.64" stroke="#132e65" stroke-width="1.5"></path><path d="M-64.4 397.7L87.29 505.88" stroke="#132e65" stroke-width="1.5"></path><path d="M-64.4 397.7L192.72 524.11" stroke="#132e65" stroke-width="1.5"></path><path d="M-64.4 397.7L222.98 400.14" stroke="#132e65" stroke-width="1.5"></path><path d="M-64.4 397.7L55.49 673.99" stroke="#132e65" stroke-width="1.5"></path><path d="M-43.58 555.64L-43.58 555.64" stroke="#132e65" stroke-width="1.5"></path><path d="M-43.58 555.64L87.29 505.88" stroke="#132e65" stroke-width="1.5"></path><path d="M-43.58 555.64L55.49 673.99" stroke="#132e65" stroke-width="1.5"></path><path d="M-43.58 555.64L-72.1 711.8" stroke="#132e65" stroke-width="1.5"></path><path d="M-72.1 711.8L-72.1 711.8" stroke="#132e65" stroke-width="1.5"></path><path d="M-72.1 711.8L55.49 673.99" stroke="#132e65" stroke-width="1.5"></path><path d="M-72.1 711.8L87.29 505.88" stroke="#132e65" stroke-width="1.5"></path><path d="M-72.1 711.8L-64.4 397.7" stroke="#132e65" stroke-width="1.5"></path><path d="M-72.1 711.8L192.72 524.11" stroke="#132e65" stroke-width="1.5"></path><path d="M72.77 338.93L72.77 338.93" stroke="#132e65" stroke-width="1.5"></path><path d="M72.77 338.93L222.98 400.14" stroke="#132e65" stroke-width="1.5"></path><path d="M87.29 505.88L87.29 505.88" stroke="#132e65" stroke-width="1.5"></path><path d="M87.29 505.88L192.72 524.11" stroke="#132e65" stroke-width="1.5"></path><path d="M55.49 673.99L55.49 673.99" stroke="#132e65" stroke-width="1.5"></path><path d="M55.49 673.99L87.29 505.88" stroke="#132e65" stroke-width="1.5"></path><path d="M55.49 673.99L253.23 659.43" stroke="#132e65" stroke-width="1.5"></path><path d="M55.49 673.99L192.72 524.11" stroke="#132e65" stroke-width="1.5"></path><path d="M222.98 400.14L222.98 400.14" stroke="#132e65" stroke-width="1.5"></path><path d="M222.98 400.14L192.72 524.11" stroke="#132e65" stroke-width="1.5"></path><path d="M222.98 400.14L87.29 505.88" stroke="#132e65" stroke-width="1.5"></path><path d="M192.72 524.11L192.72 524.11" stroke="#132e65" stroke-width="1.5"></path><path d="M192.72 524.11L253.23 659.43" stroke="#132e65" stroke-width="1.5"></path><path d="M253.23 659.43L253.23 659.43" stroke="#132e65" stroke-width="1.5"></path><path d="M253.23 659.43L362.83 696.84" stroke="#132e65" stroke-width="1.5"></path><path d="M401.06 338.07L401.06 338.07" stroke="#132e65" stroke-width="1.5"></path><path d="M401.06 338.07L504.37 349.72" stroke="#132e65" stroke-width="1.5"></path><path d="M401.06 338.07L404.04 508.61" stroke="#132e65" stroke-width="1.5"></path><path d="M401.06 338.07L222.98 400.14" stroke="#132e65" stroke-width="1.5"></path><path d="M404.04 508.61L404.04 508.61" stroke="#132e65" stroke-width="1.5"></path><path d="M404.04 508.61L537.39 513.55" stroke="#132e65" stroke-width="1.5"></path><path d="M362.83 696.84L362.83 696.84" stroke="#132e65" stroke-width="1.5"></path><path d="M362.83 696.84L552.65 681.13" stroke="#132e65" stroke-width="1.5"></path><path d="M362.83 696.84L404.04 508.61" stroke="#132e65" stroke-width="1.5"></path><path d="M362.83 696.84L192.72 524.11" stroke="#132e65" stroke-width="1.5"></path><path d="M362.83 696.84L537.39 513.55" stroke="#132e65" stroke-width="1.5"></path><path d="M362.83 696.84L651.05 667.15" stroke="#132e65" stroke-width="1.5"></path><path d="M504.37 349.72L504.37 349.72" stroke="#132e65" stroke-width="1.5"></path><path d="M504.37 349.72L646.62 365.04" stroke="#132e65" stroke-width="1.5"></path><path d="M504.37 349.72L537.39 513.55" stroke="#132e65" stroke-width="1.5"></path><path d="M504.37 349.72L651.04 248.03" stroke="#132e65" stroke-width="1.5"></path><path d="M504.37 349.72L404.04 508.61" stroke="#132e65" stroke-width="1.5"></path><path d="M537.39 513.55L537.39 513.55" stroke="#132e65" stroke-width="1.5"></path><path d="M537.39 513.55L661.35 514.08" stroke="#132e65" stroke-width="1.5"></path><path d="M552.65 681.13L552.65 681.13" stroke="#132e65" stroke-width="1.5"></path><path d="M552.65 681.13L651.05 667.15" stroke="#132e65" stroke-width="1.5"></path><path d="M552.65 681.13L537.39 513.55" stroke="#132e65" stroke-width="1.5"></path><path d="M552.65 681.13L661.35 514.08" stroke="#132e65" stroke-width="1.5"></path><path d="M552.65 681.13L404.04 508.61" stroke="#132e65" stroke-width="1.5"></path><path d="M651.04 248.03L651.04 248.03" stroke="#132e65" stroke-width="1.5"></path><path d="M651.04 248.03L646.62 365.04" stroke="#132e65" stroke-width="1.5"></path><path d="M651.04 248.03L834.97 216.07" stroke="#132e65" stroke-width="1.5"></path><path d="M646.62 365.04L646.62 365.04" stroke="#132e65" stroke-width="1.5"></path><path d="M661.35 514.08L661.35 514.08" stroke="#132e65" stroke-width="1.5"></path><path d="M661.35 514.08L646.62 365.04" stroke="#132e65" stroke-width="1.5"></path><path d="M661.35 514.08L651.05 667.15" stroke="#132e65" stroke-width="1.5"></path><path d="M661.35 514.08L787.55 406.68" stroke="#132e65" stroke-width="1.5"></path><path d="M651.05 667.15L651.05 667.15" stroke="#132e65" stroke-width="1.5"></path><path d="M834.97 216.07L834.97 216.07" stroke="#132e65" stroke-width="1.5"></path><path d="M834.97 216.07L942.4 213.34" stroke="#132e65" stroke-width="1.5"></path><path d="M834.97 216.07L787.55 406.68" stroke="#132e65" stroke-width="1.5"></path><path d="M834.97 216.07L979.9 372.41" stroke="#132e65" stroke-width="1.5"></path><path d="M834.97 216.07L995.74 51.86" stroke="#132e65" stroke-width="1.5"></path><path d="M834.97 216.07L646.62 365.04" stroke="#132e65" stroke-width="1.5"></path><path d="M787.55 406.68L787.55 406.68" stroke="#132e65" stroke-width="1.5"></path><path d="M787.55 406.68L646.62 365.04" stroke="#132e65" stroke-width="1.5"></path><path d="M787.55 406.68L979.9 372.41" stroke="#132e65" stroke-width="1.5"></path><path d="M787.55 406.68L947.38 538.45" stroke="#132e65" stroke-width="1.5"></path><path d="M810.63 639.96L810.63 639.96" stroke="#132e65" stroke-width="1.5"></path><path d="M810.63 639.96L651.05 667.15" stroke="#132e65" stroke-width="1.5"></path><path d="M810.63 639.96L947.38 538.45" stroke="#132e65" stroke-width="1.5"></path><path d="M984.2 -103.21L984.2 -103.21" stroke="#132e65" stroke-width="1.5"></path><path d="M984.2 -103.21L1091.4 -81.7" stroke="#132e65" stroke-width="1.5"></path><path d="M984.2 -103.21L995.74 51.86" stroke="#132e65" stroke-width="1.5"></path><path d="M984.2 -103.21L942.4 213.34" stroke="#132e65" stroke-width="1.5"></path><path d="M984.2 -103.21L1309.59 -62.96" stroke="#132e65" stroke-width="1.5"></path><path d="M984.2 -103.21L1270.71 96.67" stroke="#132e65" stroke-width="1.5"></path><path d="M984.2 -103.21L834.97 216.07" stroke="#132e65" stroke-width="1.5"></path><path d="M995.74 51.86L995.74 51.86" stroke="#132e65" stroke-width="1.5"></path><path d="M995.74 51.86L1091.4 -81.7" stroke="#132e65" stroke-width="1.5"></path><path d="M942.4 213.34L942.4 213.34" stroke="#132e65" stroke-width="1.5"></path><path d="M942.4 213.34L979.9 372.41" stroke="#132e65" stroke-width="1.5"></path><path d="M942.4 213.34L995.74 51.86" stroke="#132e65" stroke-width="1.5"></path><path d="M942.4 213.34L787.55 406.68" stroke="#132e65" stroke-width="1.5"></path><path d="M942.4 213.34L1131.21 393.28" stroke="#132e65" stroke-width="1.5"></path><path d="M942.4 213.34L651.04 248.03" stroke="#132e65" stroke-width="1.5"></path><path d="M979.9 372.41L979.9 372.41" stroke="#132e65" stroke-width="1.5"></path><path d="M979.9 372.41L1131.21 393.28" stroke="#132e65" stroke-width="1.5"></path><path d="M979.9 372.41L947.38 538.45" stroke="#132e65" stroke-width="1.5"></path><path d="M979.9 372.41L1116.5 510.99" stroke="#132e65" stroke-width="1.5"></path><path d="M947.38 538.45L947.38 538.45" stroke="#132e65" stroke-width="1.5"></path><path d="M947.38 538.45L994.92 669.91" stroke="#132e65" stroke-width="1.5"></path><path d="M947.38 538.45L1116.5 510.99" stroke="#132e65" stroke-width="1.5"></path><path d="M994.92 669.91L994.92 669.91" stroke="#132e65" stroke-width="1.5"></path><path d="M994.92 669.91L1122.96 701.15" stroke="#132e65" stroke-width="1.5"></path><path d="M994.92 669.91L810.63 639.96" stroke="#132e65" stroke-width="1.5"></path><path d="M994.92 669.91L1116.5 510.99" stroke="#132e65" stroke-width="1.5"></path><path d="M1091.4 -81.7L1091.4 -81.7" stroke="#132e65" stroke-width="1.5"></path><path d="M1091.4 -81.7L1309.59 -62.96" stroke="#132e65" stroke-width="1.5"></path><path d="M1131.21 393.28L1131.21 393.28" stroke="#132e65" stroke-width="1.5"></path><path d="M1131.21 393.28L1116.5 510.99" stroke="#132e65" stroke-width="1.5"></path><path d="M1116.5 510.99L1116.5 510.99" stroke="#132e65" stroke-width="1.5"></path><path d="M1116.5 510.99L1122.96 701.15" stroke="#132e65" stroke-width="1.5"></path><path d="M1122.96 701.15L1122.96 701.15" stroke="#132e65" stroke-width="1.5"></path><path d="M1309.59 -62.96L1309.59 -62.96" stroke="#132e65" stroke-width="1.5"></path><path d="M1309.59 -62.96L1404 -46.83" stroke="#132e65" stroke-width="1.5"></path><path d="M1309.59 -62.96L1270.71 96.67" stroke="#132e65" stroke-width="1.5"></path><path d="M1309.59 -62.96L1434.5 105.81" stroke="#132e65" stroke-width="1.5"></path><path d="M1309.59 -62.96L1589.46 -101.66" stroke="#132e65" stroke-width="1.5"></path><path d="M1309.59 -62.96L1430.57 196.28" stroke="#132e65" stroke-width="1.5"></path><path d="M1270.71 96.67L1270.71 96.67" stroke="#132e65" stroke-width="1.5"></path><path d="M1270.71 96.67L1290.18 230.16" stroke="#132e65" stroke-width="1.5"></path><path d="M1270.71 96.67L1434.5 105.81" stroke="#132e65" stroke-width="1.5"></path><path d="M1290.18 230.16L1290.18 230.16" stroke="#132e65" stroke-width="1.5"></path><path d="M1290.18 230.16L1279.4 343.32" stroke="#132e65" stroke-width="1.5"></path><path d="M1290.18 230.16L1430.57 196.28" stroke="#132e65" stroke-width="1.5"></path><path d="M1279.4 343.32L1279.4 343.32" stroke="#132e65" stroke-width="1.5"></path><path d="M1279.4 343.32L1420.17 377.22" stroke="#132e65" stroke-width="1.5"></path><path d="M1279.4 343.32L1131.21 393.28" stroke="#132e65" stroke-width="1.5"></path><path d="M1279.4 343.32L1430.57 196.28" stroke="#132e65" stroke-width="1.5"></path><path d="M1279.4 343.32L1436.44 504.74" stroke="#132e65" stroke-width="1.5"></path><path d="M1271.14 699.17L1271.14 699.17" stroke="#132e65" stroke-width="1.5"></path><path d="M1271.14 699.17L1122.96 701.15" stroke="#132e65" stroke-width="1.5"></path><path d="M1271.14 699.17L1446.42 668.61" stroke="#132e65" stroke-width="1.5"></path><path d="M1271.14 699.17L1116.5 510.99" stroke="#132e65" stroke-width="1.5"></path><path d="M1271.14 699.17L1436.44 504.74" stroke="#132e65" stroke-width="1.5"></path><path d="M1271.14 699.17L994.92 669.91" stroke="#132e65" stroke-width="1.5"></path><path d="M1271.14 699.17L1571.2 557.15" stroke="#132e65" stroke-width="1.5"></path><path d="M1404 -46.83L1404 -46.83" stroke="#132e65" stroke-width="1.5"></path><path d="M1404 -46.83L1434.5 105.81" stroke="#132e65" stroke-width="1.5"></path><path d="M1404 -46.83L1589.46 -101.66" stroke="#132e65" stroke-width="1.5"></path><path d="M1404 -46.83L1270.71 96.67" stroke="#132e65" stroke-width="1.5"></path><path d="M1404 -46.83L1607.38 79.1" stroke="#132e65" stroke-width="1.5"></path><path d="M1434.5 105.81L1434.5 105.81" stroke="#132e65" stroke-width="1.5"></path><path d="M1434.5 105.81L1430.57 196.28" stroke="#132e65" stroke-width="1.5"></path><path d="M1434.5 105.81L1607.38 79.1" stroke="#132e65" stroke-width="1.5"></path><path d="M1430.57 196.28L1430.57 196.28" stroke="#132e65" stroke-width="1.5"></path><path d="M1430.57 196.28L1420.17 377.22" stroke="#132e65" stroke-width="1.5"></path><path d="M1430.57 196.28L1270.71 96.67" stroke="#132e65" stroke-width="1.5"></path><path d="M1420.17 377.22L1420.17 377.22" stroke="#132e65" stroke-width="1.5"></path><path d="M1420.17 377.22L1436.44 504.74" stroke="#132e65" stroke-width="1.5"></path><path d="M1420.17 377.22L1550.77 392.54" stroke="#132e65" stroke-width="1.5"></path><path d="M1436.44 504.74L1436.44 504.74" stroke="#132e65" stroke-width="1.5"></path><path d="M1436.44 504.74L1571.2 557.15" stroke="#132e65" stroke-width="1.5"></path><path d="M1436.44 504.74L1550.77 392.54" stroke="#132e65" stroke-width="1.5"></path><path d="M1436.44 504.74L1446.42 668.61" stroke="#132e65" stroke-width="1.5"></path><path d="M1446.42 668.61L1446.42 668.61" stroke="#132e65" stroke-width="1.5"></path><path d="M1446.42 668.61L1571.2 557.15" stroke="#132e65" stroke-width="1.5"></path><path d="M1589.46 -101.66L1589.46 -101.66" stroke="#132e65" stroke-width="1.5"></path><path d="M1589.46 -101.66L1607.38 79.1" stroke="#132e65" stroke-width="1.5"></path><path d="M1589.46 -101.66L1434.5 105.81" stroke="#132e65" stroke-width="1.5"></path><path d="M1589.46 -101.66L1430.57 196.28" stroke="#132e65" stroke-width="1.5"></path><path d="M1589.46 -101.66L1270.71 96.67" stroke="#132e65" stroke-width="1.5"></path><path d="M1607.38 79.1L1607.38 79.1" stroke="#132e65" stroke-width="1.5"></path><path d="M1550.77 392.54L1550.77 392.54" stroke="#132e65" stroke-width="1.5"></path><path d="M1550.77 392.54L1571.2 557.15" stroke="#132e65" stroke-width="1.5"></path><path d="M1550.77 392.54L1430.57 196.28" stroke="#132e65" stroke-width="1.5"></path><path d="M1550.77 392.54L1279.4 343.32" stroke="#132e65" stroke-width="1.5"></path><path d="M1571.2 557.15L1571.2 557.15" stroke="#132e65" stroke-width="1.5"></path><path d="M1571.2 557.15L1420.17 377.22" stroke="#132e65" stroke-width="1.5"></path><path d="M1571.2 557.15L1279.4 343.32" stroke="#132e65" stroke-width="1.5"></path><circle r="5" cx="-64.4" cy="397.7" fill="#132e65"></circle><circle r="5" cx="-43.58" cy="555.64" fill="#132e65"></circle><circle r="5" cx="-72.1" cy="711.8" fill="#132e65"></circle><circle r="5" cx="72.77" cy="338.93" fill="#132e65"></circle><circle r="5" cx="87.29" cy="505.88" fill="#132e65"></circle><circle r="5" cx="55.49" cy="673.99" fill="#132e65"></circle><circle r="5" cx="222.98" cy="400.14" fill="#132e65"></circle><circle r="5" cx="192.72" cy="524.11" fill="#132e65"></circle><circle r="5" cx="253.23" cy="659.43" fill="#132e65"></circle><circle r="5" cx="401.06" cy="338.07" fill="#132e65"></circle><circle r="5" cx="404.04" cy="508.61" fill="#132e65"></circle><circle r="5" cx="362.83" cy="696.84" fill="#132e65"></circle><circle r="5" cx="504.37" cy="349.72" fill="#132e65"></circle><circle r="5" cx="537.39" cy="513.55" fill="#132e65"></circle><circle r="5" cx="552.65" cy="681.13" fill="#132e65"></circle><circle r="5" cx="651.04" cy="248.03" fill="#132e65"></circle><circle r="5" cx="646.62" cy="365.04" fill="#132e65"></circle><circle r="5" cx="661.35" cy="514.08" fill="#132e65"></circle><circle r="5" cx="651.05" cy="667.15" fill="#132e65"></circle><circle r="5" cx="834.97" cy="216.07" fill="#132e65"></circle><circle r="5" cx="787.55" cy="406.68" fill="#132e65"></circle><circle r="5" cx="810.63" cy="639.96" fill="#132e65"></circle><circle r="5" cx="984.2" cy="-103.21" fill="#132e65"></circle><circle r="5" cx="995.74" cy="51.86" fill="#132e65"></circle><circle r="5" cx="942.4" cy="213.34" fill="#132e65"></circle><circle r="5" cx="979.9" cy="372.41" fill="#132e65"></circle><circle r="5" cx="947.38" cy="538.45" fill="#132e65"></circle><circle r="5" cx="994.92" cy="669.91" fill="#132e65"></circle><circle r="5" cx="1091.4" cy="-81.7" fill="#132e65"></circle><circle r="5" cx="1131.21" cy="393.28" fill="#132e65"></circle><circle r="5" cx="1116.5" cy="510.99" fill="#132e65"></circle><circle r="5" cx="1122.96" cy="701.15" fill="#132e65"></circle><circle r="5" cx="1309.59" cy="-62.96" fill="#132e65"></circle><circle r="5" cx="1270.71" cy="96.67" fill="#132e65"></circle><circle r="5" cx="1290.18" cy="230.16" fill="#132e65"></circle><circle r="5" cx="1279.4" cy="343.32" fill="#132e65"></circle><circle r="5" cx="1271.14" cy="699.17" fill="#132e65"></circle><circle r="5" cx="1404" cy="-46.83" fill="#132e65"></circle><circle r="5" cx="1434.5" cy="105.81" fill="#132e65"></circle><circle r="5" cx="1430.57" cy="196.28" fill="#132e65"></circle><circle r="5" cx="1420.17" cy="377.22" fill="#132e65"></circle><circle r="5" cx="1436.44" cy="504.74" fill="#132e65"></circle><circle r="5" cx="1446.42" cy="668.61" fill="#132e65"></circle><circle r="5" cx="1589.46" cy="-101.66" fill="#132e65"></circle><circle r="5" cx="1607.38" cy="79.1" fill="#132e65"></circle><circle r="5" cx="1550.77" cy="392.54" fill="#132e65"></circle><circle r="5" cx="1571.2" cy="557.15" fill="#132e65"></circle><path d="M-70.61 680.33L-70.61 680.33" stroke="hsl(228.5, 77.2%, 51.5%)" stroke-width="1.5"></path><path d="M-70.61 680.33L-102.19 554.8" stroke="hsl(228.5, 77.2%, 51.5%)" stroke-width="1.5"></path><path d="M-70.61 680.33L104.11 688.71" stroke="hsl(228.5, 77.2%, 51.5%)" stroke-width="1.5"></path><path d="M-70.61 680.33L82.76 552.52" stroke="hsl(228.5, 77.2%, 51.5%)" stroke-width="1.5"></path><path d="M-70.61 680.33L197.49 710.64" stroke="hsl(228.5, 77.2%, 51.5%)" stroke-width="1.5"></path><path d="M-70.61 680.33L246.97 520.71" stroke="hsl(228.5, 77.2%, 51.5%)" stroke-width="1.5"></path><path d="M82.76 552.52L82.76 552.52" stroke="hsl(228.5, 77.2%, 51.5%)" stroke-width="1.5"></path><path d="M82.76 552.52L104.11 688.71" stroke="hsl(228.5, 77.2%, 51.5%)" stroke-width="1.5"></path><path d="M82.76 552.52L246.97 520.71" stroke="hsl(228.5, 77.2%, 51.5%)" stroke-width="1.5"></path><path d="M82.76 552.52L-102.19 554.8" stroke="hsl(228.5, 77.2%, 51.5%)" stroke-width="1.5"></path><path d="M82.76 552.52L197.49 710.64" stroke="hsl(228.5, 77.2%, 51.5%)" stroke-width="1.5"></path><path d="M517.94 700.67L517.94 700.67" stroke="hsl(228.5, 77.2%, 51.5%)" stroke-width="1.5"></path><path d="M517.94 700.67L382.06 637.66" stroke="hsl(228.5, 77.2%, 51.5%)" stroke-width="1.5"></path><path d="M517.94 700.67L540.32 509.86" stroke="hsl(228.5, 77.2%, 51.5%)" stroke-width="1.5"></path><path d="M517.94 700.67L710.63 692.39" stroke="hsl(228.5, 77.2%, 51.5%)" stroke-width="1.5"></path><path d="M517.94 700.67L370.31 556.04" stroke="hsl(228.5, 77.2%, 51.5%)" stroke-width="1.5"></path><path d="M517.94 700.67L700.36 531.49" stroke="hsl(228.5, 77.2%, 51.5%)" stroke-width="1.5"></path><path d="M790.31 383.81L790.31 383.81" stroke="hsl(228.5, 77.2%, 51.5%)" stroke-width="1.5"></path><path d="M790.31 383.81L672.77 402.95" stroke="hsl(228.5, 77.2%, 51.5%)" stroke-width="1.5"></path><path d="M790.31 383.81L855.62 516.7" stroke="hsl(228.5, 77.2%, 51.5%)" stroke-width="1.5"></path><path d="M790.31 383.81L700.36 531.49" stroke="hsl(228.5, 77.2%, 51.5%)" stroke-width="1.5"></path><path d="M1009.87 260.7L1009.87 260.7" stroke="hsl(228.5, 77.2%, 51.5%)" stroke-width="1.5"></path><path d="M1009.87 260.7L1000.25 392.75" stroke="hsl(228.5, 77.2%, 51.5%)" stroke-width="1.5"></path><path d="M1009.87 260.7L1161.24 229.47" stroke="hsl(228.5, 77.2%, 51.5%)" stroke-width="1.5"></path><path d="M1009.87 260.7L1126.46 392.47" stroke="hsl(228.5, 77.2%, 51.5%)" stroke-width="1.5"></path><path d="M987.74 536.31L987.74 536.31" stroke="hsl(228.5, 77.2%, 51.5%)" stroke-width="1.5"></path><path d="M987.74 536.31L855.62 516.7" stroke="hsl(228.5, 77.2%, 51.5%)" stroke-width="1.5"></path><path d="M987.74 536.31L1000.25 392.75" stroke="hsl(228.5, 77.2%, 51.5%)" stroke-width="1.5"></path><path d="M987.74 536.31L954.59 682.4" stroke="hsl(228.5, 77.2%, 51.5%)" stroke-width="1.5"></path><path d="M987.74 536.31L1144.54 492.23" stroke="hsl(228.5, 77.2%, 51.5%)" stroke-width="1.5"></path><path d="M1143.59 67.54L1143.59 67.54" stroke="hsl(228.5, 77.2%, 51.5%)" stroke-width="1.5"></path><path d="M1143.59 67.54L1240.15 75.76" stroke="hsl(228.5, 77.2%, 51.5%)" stroke-width="1.5"></path><path d="M1143.59 67.54L1161.24 229.47" stroke="hsl(228.5, 77.2%, 51.5%)" stroke-width="1.5"></path><path d="M1161.24 229.47L1161.24 229.47" stroke="hsl(228.5, 77.2%, 51.5%)" stroke-width="1.5"></path><path d="M1161.24 229.47L1293.72 252.42" stroke="hsl(228.5, 77.2%, 51.5%)" stroke-width="1.5"></path><path d="M1417.95 704.67L1417.95 704.67" stroke="hsl(228.5, 77.2%, 51.5%)" stroke-width="1.5"></path><path d="M1417.95 704.67L1281.71 648" stroke="hsl(228.5, 77.2%, 51.5%)" stroke-width="1.5"></path><path d="M1417.95 704.67L1575.33 707.16" stroke="hsl(228.5, 77.2%, 51.5%)" stroke-width="1.5"></path><path d="M1417.95 704.67L1564.81 502.28" stroke="hsl(228.5, 77.2%, 51.5%)" stroke-width="1.5"></path><path d="M1417.95 704.67L1271.53 500.34" stroke="hsl(228.5, 77.2%, 51.5%)" stroke-width="1.5"></path><path d="M1607.86 64.51L1607.86 64.51" stroke="hsl(228.5, 77.2%, 51.5%)" stroke-width="1.5"></path><path d="M1607.86 64.51L1611.75 -58.84" stroke="hsl(228.5, 77.2%, 51.5%)" stroke-width="1.5"></path><path d="M1607.86 64.51L1561.69 227.57" stroke="hsl(228.5, 77.2%, 51.5%)" stroke-width="1.5"></path><path d="M1575.33 707.16L1575.33 707.16" stroke="hsl(228.5, 77.2%, 51.5%)" stroke-width="1.5"></path><path d="M1575.33 707.16L1564.81 502.28" stroke="hsl(228.5, 77.2%, 51.5%)" stroke-width="1.5"></path><path d="M1575.33 707.16L1281.71 648" stroke="hsl(228.5, 77.2%, 51.5%)" stroke-width="1.5"></path><path d="M-102.19 554.8L-102.19 554.8" stroke="hsl(228.5, 77.2%, 51.5%)" stroke-width="1.5"></path><path d="M-102.19 554.8L104.11 688.71" stroke="hsl(228.5, 77.2%, 51.5%)" stroke-width="1.5"></path><path d="M-102.19 554.8L197.49 710.64" stroke="hsl(228.5, 77.2%, 51.5%)" stroke-width="1.5"></path><path d="M-102.19 554.8L246.97 520.71" stroke="hsl(228.5, 77.2%, 51.5%)" stroke-width="1.5"></path><path d="M-102.19 554.8L370.31 556.04" stroke="hsl(228.5, 77.2%, 51.5%)" stroke-width="1.5"></path><path d="M104.11 688.71L104.11 688.71" stroke="hsl(228.5, 77.2%, 51.5%)" stroke-width="1.5"></path><path d="M104.11 688.71L197.49 710.64" stroke="hsl(228.5, 77.2%, 51.5%)" stroke-width="1.5"></path><path d="M246.97 520.71L246.97 520.71" stroke="hsl(228.5, 77.2%, 51.5%)" stroke-width="1.5"></path><path d="M246.97 520.71L370.31 556.04" stroke="hsl(228.5, 77.2%, 51.5%)" stroke-width="1.5"></path><path d="M246.97 520.71L382.06 637.66" stroke="hsl(228.5, 77.2%, 51.5%)" stroke-width="1.5"></path><path d="M246.97 520.71L197.49 710.64" stroke="hsl(228.5, 77.2%, 51.5%)" stroke-width="1.5"></path><path d="M246.97 520.71L104.11 688.71" stroke="hsl(228.5, 77.2%, 51.5%)" stroke-width="1.5"></path><path d="M246.97 520.71L540.32 509.86" stroke="hsl(228.5, 77.2%, 51.5%)" stroke-width="1.5"></path><path d="M197.49 710.64L197.49 710.64" stroke="hsl(228.5, 77.2%, 51.5%)" stroke-width="1.5"></path><path d="M197.49 710.64L382.06 637.66" stroke="hsl(228.5, 77.2%, 51.5%)" stroke-width="1.5"></path><path d="M370.31 556.04L370.31 556.04" stroke="hsl(228.5, 77.2%, 51.5%)" stroke-width="1.5"></path><path d="M370.31 556.04L382.06 637.66" stroke="hsl(228.5, 77.2%, 51.5%)" stroke-width="1.5"></path><path d="M370.31 556.04L540.32 509.86" stroke="hsl(228.5, 77.2%, 51.5%)" stroke-width="1.5"></path><path d="M370.31 556.04L197.49 710.64" stroke="hsl(228.5, 77.2%, 51.5%)" stroke-width="1.5"></path><path d="M382.06 637.66L382.06 637.66" stroke="hsl(228.5, 77.2%, 51.5%)" stroke-width="1.5"></path><path d="M382.06 637.66L540.32 509.86" stroke="hsl(228.5, 77.2%, 51.5%)" stroke-width="1.5"></path><path d="M540.32 509.86L540.32 509.86" stroke="hsl(228.5, 77.2%, 51.5%)" stroke-width="1.5"></path><path d="M540.32 509.86L700.36 531.49" stroke="hsl(228.5, 77.2%, 51.5%)" stroke-width="1.5"></path><path d="M540.32 509.86L672.77 402.95" stroke="hsl(228.5, 77.2%, 51.5%)" stroke-width="1.5"></path><path d="M672.77 402.95L672.77 402.95" stroke="hsl(228.5, 77.2%, 51.5%)" stroke-width="1.5"></path><path d="M672.77 402.95L700.36 531.49" stroke="hsl(228.5, 77.2%, 51.5%)" stroke-width="1.5"></path><path d="M672.77 402.95L855.62 516.7" stroke="hsl(228.5, 77.2%, 51.5%)" stroke-width="1.5"></path><path d="M672.77 402.95L710.63 692.39" stroke="hsl(228.5, 77.2%, 51.5%)" stroke-width="1.5"></path><path d="M672.77 402.95L788.73 684.21" stroke="hsl(228.5, 77.2%, 51.5%)" stroke-width="1.5"></path><path d="M700.36 531.49L700.36 531.49" stroke="hsl(228.5, 77.2%, 51.5%)" stroke-width="1.5"></path><path d="M700.36 531.49L855.62 516.7" stroke="hsl(228.5, 77.2%, 51.5%)" stroke-width="1.5"></path><path d="M710.63 692.39L710.63 692.39" stroke="hsl(228.5, 77.2%, 51.5%)" stroke-width="1.5"></path><path d="M710.63 692.39L788.73 684.21" stroke="hsl(228.5, 77.2%, 51.5%)" stroke-width="1.5"></path><path d="M710.63 692.39L700.36 531.49" stroke="hsl(228.5, 77.2%, 51.5%)" stroke-width="1.5"></path><path d="M710.63 692.39L855.62 516.7" stroke="hsl(228.5, 77.2%, 51.5%)" stroke-width="1.5"></path><path d="M710.63 692.39L954.59 682.4" stroke="hsl(228.5, 77.2%, 51.5%)" stroke-width="1.5"></path><path d="M710.63 692.39L540.32 509.86" stroke="hsl(228.5, 77.2%, 51.5%)" stroke-width="1.5"></path><path d="M855.62 516.7L855.62 516.7" stroke="hsl(228.5, 77.2%, 51.5%)" stroke-width="1.5"></path><path d="M855.62 516.7L788.73 684.21" stroke="hsl(228.5, 77.2%, 51.5%)" stroke-width="1.5"></path><path d="M855.62 516.7L1000.25 392.75" stroke="hsl(228.5, 77.2%, 51.5%)" stroke-width="1.5"></path><path d="M855.62 516.7L954.59 682.4" stroke="hsl(228.5, 77.2%, 51.5%)" stroke-width="1.5"></path><path d="M788.73 684.21L788.73 684.21" stroke="hsl(228.5, 77.2%, 51.5%)" stroke-width="1.5"></path><path d="M788.73 684.21L954.59 682.4" stroke="hsl(228.5, 77.2%, 51.5%)" stroke-width="1.5"></path><path d="M788.73 684.21L700.36 531.49" stroke="hsl(228.5, 77.2%, 51.5%)" stroke-width="1.5"></path><path d="M1000.25 392.75L1000.25 392.75" stroke="hsl(228.5, 77.2%, 51.5%)" stroke-width="1.5"></path><path d="M1000.25 392.75L1126.46 392.47" stroke="hsl(228.5, 77.2%, 51.5%)" stroke-width="1.5"></path><path d="M1000.25 392.75L1144.54 492.23" stroke="hsl(228.5, 77.2%, 51.5%)" stroke-width="1.5"></path><path d="M954.59 682.4L954.59 682.4" stroke="hsl(228.5, 77.2%, 51.5%)" stroke-width="1.5"></path><path d="M954.59 682.4L1105.03 697.53" stroke="hsl(228.5, 77.2%, 51.5%)" stroke-width="1.5"></path><path d="M954.59 682.4L1144.54 492.23" stroke="hsl(228.5, 77.2%, 51.5%)" stroke-width="1.5"></path><path d="M1126.46 392.47L1126.46 392.47" stroke="hsl(228.5, 77.2%, 51.5%)" stroke-width="1.5"></path><path d="M1126.46 392.47L1144.54 492.23" stroke="hsl(228.5, 77.2%, 51.5%)" stroke-width="1.5"></path><path d="M1126.46 392.47L1258.47 377.4" stroke="hsl(228.5, 77.2%, 51.5%)" stroke-width="1.5"></path><path d="M1126.46 392.47L1161.24 229.47" stroke="hsl(228.5, 77.2%, 51.5%)" stroke-width="1.5"></path><path d="M1144.54 492.23L1144.54 492.23" stroke="hsl(228.5, 77.2%, 51.5%)" stroke-width="1.5"></path><path d="M1144.54 492.23L1271.53 500.34" stroke="hsl(228.5, 77.2%, 51.5%)" stroke-width="1.5"></path><path d="M1144.54 492.23L1258.47 377.4" stroke="hsl(228.5, 77.2%, 51.5%)" stroke-width="1.5"></path><path d="M1105.03 697.53L1105.03 697.53" stroke="hsl(228.5, 77.2%, 51.5%)" stroke-width="1.5"></path><path d="M1105.03 697.53L1281.71 648" stroke="hsl(228.5, 77.2%, 51.5%)" stroke-width="1.5"></path><path d="M1105.03 697.53L987.74 536.31" stroke="hsl(228.5, 77.2%, 51.5%)" stroke-width="1.5"></path><path d="M1296.74 -45.26L1296.74 -45.26" stroke="hsl(228.5, 77.2%, 51.5%)" stroke-width="1.5"></path><path d="M1296.74 -45.26L1240.15 75.76" stroke="hsl(228.5, 77.2%, 51.5%)" stroke-width="1.5"></path><path d="M1240.15 75.76L1240.15 75.76" stroke="hsl(228.5, 77.2%, 51.5%)" stroke-width="1.5"></path><path d="M1240.15 75.76L1161.24 229.47" stroke="hsl(228.5, 77.2%, 51.5%)" stroke-width="1.5"></path><path d="M1293.72 252.42L1293.72 252.42" stroke="hsl(228.5, 77.2%, 51.5%)" stroke-width="1.5"></path><path d="M1293.72 252.42L1258.47 377.4" stroke="hsl(228.5, 77.2%, 51.5%)" stroke-width="1.5"></path><path d="M1293.72 252.42L1436.38 261.39" stroke="hsl(228.5, 77.2%, 51.5%)" stroke-width="1.5"></path><path d="M1293.72 252.42L1240.15 75.76" stroke="hsl(228.5, 77.2%, 51.5%)" stroke-width="1.5"></path><path d="M1293.72 252.42L1430.08 407.1" stroke="hsl(228.5, 77.2%, 51.5%)" stroke-width="1.5"></path><path d="M1293.72 252.42L1126.46 392.47" stroke="hsl(228.5, 77.2%, 51.5%)" stroke-width="1.5"></path><path d="M1258.47 377.4L1258.47 377.4" stroke="hsl(228.5, 77.2%, 51.5%)" stroke-width="1.5"></path><path d="M1258.47 377.4L1271.53 500.34" stroke="hsl(228.5, 77.2%, 51.5%)" stroke-width="1.5"></path><path d="M1271.53 500.34L1271.53 500.34" stroke="hsl(228.5, 77.2%, 51.5%)" stroke-width="1.5"></path><path d="M1271.53 500.34L1281.71 648" stroke="hsl(228.5, 77.2%, 51.5%)" stroke-width="1.5"></path><path d="M1271.53 500.34L1126.46 392.47" stroke="hsl(228.5, 77.2%, 51.5%)" stroke-width="1.5"></path><path d="M1271.53 500.34L1430.08 407.1" stroke="hsl(228.5, 77.2%, 51.5%)" stroke-width="1.5"></path><path d="M1281.71 648L1281.71 648" stroke="hsl(228.5, 77.2%, 51.5%)" stroke-width="1.5"></path><path d="M1281.71 648L1144.54 492.23" stroke="hsl(228.5, 77.2%, 51.5%)" stroke-width="1.5"></path><path d="M1451.48 -86.75L1451.48 -86.75" stroke="hsl(228.5, 77.2%, 51.5%)" stroke-width="1.5"></path><path d="M1451.48 -86.75L1296.74 -45.26" stroke="hsl(228.5, 77.2%, 51.5%)" stroke-width="1.5"></path><path d="M1451.48 -86.75L1611.75 -58.84" stroke="hsl(228.5, 77.2%, 51.5%)" stroke-width="1.5"></path><path d="M1451.48 -86.75L1607.86 64.51" stroke="hsl(228.5, 77.2%, 51.5%)" stroke-width="1.5"></path><path d="M1451.48 -86.75L1240.15 75.76" stroke="hsl(228.5, 77.2%, 51.5%)" stroke-width="1.5"></path><path d="M1451.48 -86.75L1561.69 227.57" stroke="hsl(228.5, 77.2%, 51.5%)" stroke-width="1.5"></path><path d="M1436.38 261.39L1436.38 261.39" stroke="hsl(228.5, 77.2%, 51.5%)" stroke-width="1.5"></path><path d="M1436.38 261.39L1561.69 227.57" stroke="hsl(228.5, 77.2%, 51.5%)" stroke-width="1.5"></path><path d="M1436.38 261.39L1430.08 407.1" stroke="hsl(228.5, 77.2%, 51.5%)" stroke-width="1.5"></path><path d="M1436.38 261.39L1550.83 365.95" stroke="hsl(228.5, 77.2%, 51.5%)" stroke-width="1.5"></path><path d="M1430.08 407.1L1430.08 407.1" stroke="hsl(228.5, 77.2%, 51.5%)" stroke-width="1.5"></path><path d="M1430.08 407.1L1550.83 365.95" stroke="hsl(228.5, 77.2%, 51.5%)" stroke-width="1.5"></path><path d="M1430.08 407.1L1564.81 502.28" stroke="hsl(228.5, 77.2%, 51.5%)" stroke-width="1.5"></path><path d="M1430.08 407.1L1258.47 377.4" stroke="hsl(228.5, 77.2%, 51.5%)" stroke-width="1.5"></path><path d="M1611.75 -58.84L1611.75 -58.84" stroke="hsl(228.5, 77.2%, 51.5%)" stroke-width="1.5"></path><path d="M1611.75 -58.84L1561.69 227.57" stroke="hsl(228.5, 77.2%, 51.5%)" stroke-width="1.5"></path><path d="M1561.69 227.57L1561.69 227.57" stroke="hsl(228.5, 77.2%, 51.5%)" stroke-width="1.5"></path><path d="M1561.69 227.57L1550.83 365.95" stroke="hsl(228.5, 77.2%, 51.5%)" stroke-width="1.5"></path><path d="M1550.83 365.95L1550.83 365.95" stroke="hsl(228.5, 77.2%, 51.5%)" stroke-width="1.5"></path><path d="M1550.83 365.95L1564.81 502.28" stroke="hsl(228.5, 77.2%, 51.5%)" stroke-width="1.5"></path><path d="M1550.83 365.95L1293.72 252.42" stroke="hsl(228.5, 77.2%, 51.5%)" stroke-width="1.5"></path><path d="M1564.81 502.28L1564.81 502.28" stroke="hsl(228.5, 77.2%, 51.5%)" stroke-width="1.5"></path><path d="M1564.81 502.28L1436.38 261.39" stroke="hsl(228.5, 77.2%, 51.5%)" stroke-width="1.5"></path><circle r="25" cx="-70.61" cy="680.33" fill="url(#SvgjsRadialGradient1011)"></circle><circle r="25" cx="82.76" cy="552.52" fill="url(#SvgjsRadialGradient1011)"></circle><circle r="25" cx="517.94" cy="700.67" fill="url(#SvgjsRadialGradient1011)"></circle><circle r="25" cx="790.31" cy="383.81" fill="url(#SvgjsRadialGradient1011)"></circle><circle r="25" cx="1009.87" cy="260.7" fill="url(#SvgjsRadialGradient1011)"></circle><circle r="25" cx="987.74" cy="536.31" fill="url(#SvgjsRadialGradient1011)"></circle><circle r="25" cx="1143.59" cy="67.54" fill="url(#SvgjsRadialGradient1011)"></circle><circle r="25" cx="1161.24" cy="229.47" fill="url(#SvgjsRadialGradient1011)"></circle><circle r="25" cx="1417.95" cy="704.67" fill="url(#SvgjsRadialGradient1011)"></circle><circle r="25" cx="1607.86" cy="64.51" fill="url(#SvgjsRadialGradient1011)"></circle><circle r="25" cx="1575.33" cy="707.16" fill="url(#SvgjsRadialGradient1011)"></circle><circle r="5" cx="-102.19" cy="554.8" fill="#8b9ad9"></circle><circle r="5" cx="104.11" cy="688.71" fill="#8b9ad9"></circle><circle r="5" cx="246.97" cy="520.71" fill="#8b9ad9"></circle><circle r="5" cx="197.49" cy="710.64" fill="#8b9ad9"></circle><circle r="5" cx="370.31" cy="556.04" fill="#8b9ad9"></circle><circle r="5" cx="382.06" cy="637.66" fill="#8b9ad9"></circle><circle r="5" cx="540.32" cy="509.86" fill="#8b9ad9"></circle><circle r="5" cx="672.77" cy="402.95" fill="#8b9ad9"></circle><circle r="5" cx="700.36" cy="531.49" fill="#8b9ad9"></circle><circle r="5" cx="710.63" cy="692.39" fill="#8b9ad9"></circle><circle r="5" cx="855.62" cy="516.7" fill="#8b9ad9"></circle><circle r="5" cx="788.73" cy="684.21" fill="#8b9ad9"></circle><circle r="5" cx="1000.25" cy="392.75" fill="#8b9ad9"></circle><circle r="5" cx="954.59" cy="682.4" fill="#8b9ad9"></circle><circle r="5" cx="1126.46" cy="392.47" fill="#8b9ad9"></circle><circle r="5" cx="1144.54" cy="492.23" fill="#8b9ad9"></circle><circle r="5" cx="1105.03" cy="697.53" fill="#8b9ad9"></circle><circle r="5" cx="1296.74" cy="-45.26" fill="#8b9ad9"></circle><circle r="5" cx="1240.15" cy="75.76" fill="#8b9ad9"></circle><circle r="5" cx="1293.72" cy="252.42" fill="#8b9ad9"></circle><circle r="5" cx="1258.47" cy="377.4" fill="#8b9ad9"></circle><circle r="5" cx="1271.53" cy="500.34" fill="#8b9ad9"></circle><circle r="5" cx="1281.71" cy="648" fill="#8b9ad9"></circle><circle r="5" cx="1451.48" cy="-86.75" fill="#8b9ad9"></circle><circle r="5" cx="1436.38" cy="261.39" fill="#8b9ad9"></circle><circle r="5" cx="1430.08" cy="407.1" fill="#8b9ad9"></circle><circle r="5" cx="1611.75" cy="-58.84" fill="#8b9ad9"></circle><circle r="5" cx="1561.69" cy="227.57" fill="#8b9ad9"></circle><circle r="5" cx="1550.83" cy="365.95" fill="#8b9ad9"></circle><circle r="5" cx="1564.81" cy="502.28" fill="#8b9ad9"></circle></g><defs><mask id="SvgjsMask1010"><rect width="1440" height="560" fill="#ffffff"></rect></mask><radialGradient id="SvgjsRadialGradient1011"><stop stop-color="#ffffff" offset="0.1"></stop><stop stop-color="#1735b3" offset="0.2"></stop><stop stop-color="rgba(23, 53, 179, 0)" offset="1"></stop></radialGradient></defs></svg>